<svg width="288" height="72" viewBox="0 0 288 72" fill="none" xmlns="http://www.w3.org/2000/svg">
<path d="M100.948 53.3547V20.3971H91.3371L85.5703 44.5693L79.8035 20.3971H70V53.3547H76.1993V30.8701L82.1103 53.3547H88.7421L94.7011 30.7708V53.3547H100.948Z" fill="#1F3D4E"/>
<path d="M110.911 38.762C111.151 35.3869 113.218 33.4015 115.717 33.4015C118.168 33.4015 120.474 35.1387 120.571 38.762H110.911ZM127.01 42.8321C127.01 33.1533 123.166 28.2891 115.909 28.2891C108.653 28.2891 104.472 33.1533 104.472 40.6978C104.472 49.5328 108.412 54 116.294 54C121.339 54 125.232 51.1708 126.674 46.1577H120.234C119.802 47.8453 118.024 48.8876 116.005 48.8876C112.93 48.8876 110.911 46.5051 110.719 42.8321H127.01Z" fill="#1F3D4E"/>
<path d="M152.044 53.3547V36.4292C152.044 31.1182 148.728 28.2891 144.211 28.2891C140.415 28.2891 138.012 29.7781 136.57 32.508V28.9343H130.611V53.3547H136.858V39.3577C136.858 35.635 138.444 33.7489 141.712 33.7489C144.692 33.7489 145.749 34.7912 145.749 38.5635V53.3547H152.044Z" fill="#1F3D4E"/>
<path d="M169.63 43.6263C169.63 46.654 168.476 48.3912 165.977 48.3912C163.43 48.3912 162.373 46.6044 162.373 43.527V33.5007H175.444V28.9343H162.373V22.3328H156.222V44.1723C156.222 49.4336 158.961 54 165.881 54C172.561 54 175.444 49.3839 175.444 44.2219V37.273H169.63V43.6263Z" fill="#1F3D4E"/>
<path d="M191.069 48.5898C187.272 48.5898 185.35 46.108 185.35 41.1445C185.35 36.181 187.272 33.7489 191.069 33.7489C194.865 33.7489 196.788 36.181 196.788 41.1445C196.788 46.108 194.865 48.5898 191.069 48.5898ZM191.069 54C198.421 54 203.083 48.8876 203.083 41.1445C203.083 33.3518 198.469 28.2891 191.069 28.2891C183.572 28.2891 178.91 33.4015 178.91 41.1445C178.91 48.7387 183.428 54 191.069 54Z" fill="#1F3D4E"/>
<path d="M213.034 53.3547V40.6482C213.034 36.727 214.908 34.7416 218.752 34.7416C219.329 34.7416 219.906 34.7912 220.482 34.8905V28.2891H219.665C217.118 28.2891 214.716 28.5869 212.649 31.8628V28.9343H206.786V53.3547H213.034Z" fill="#1F3D4E"/>
<path d="M232.27 53.3547V33.5007H236.307V28.9343H232.27C232.27 26.1051 232.991 25.2117 236.163 25.2117V20C229.435 20 226.119 22.9781 226.119 28.9343H222.611V33.5007H226.119V53.3547H232.27Z" fill="#1F3D4E"/>
<path d="M260.572 53.3547V28.9343H254.372V43.0307C254.372 46.2569 252.69 48.5898 249.519 48.5898C246.876 48.5898 245.53 47.1007 245.53 44.0234V28.9343H239.283V45.0161C239.283 50.3766 242.599 54 247.308 54C250.576 54 253.027 52.7095 254.661 49.9299V53.3547H260.572Z" fill="#1F3D4E"/>
<path d="M271 53.3547V20H264.753V53.3547H271Z" fill="#1F3D4E"/>
<path d="M16.0189 34.2216V53.6467H23.1521V40.2059C21.7955 39.4881 20.4549 38.6048 19.1817 37.5284C18.043 36.5657 16.9794 35.4662 16.0189 34.2216Z" fill="#3ACEB4"/>
<path d="M46.5896 39.8612V53.7122H53.7227V33.2663C52.7563 34.68 51.6625 35.9267 50.4744 37.0161C49.2374 38.1505 47.9254 39.0897 46.5896 39.8612Z" fill="#3ACEB4"/>
<path d="M32.3237 38.7929C25.8438 38.153 15.7325 33.6499 15 19C21.418 19.7293 32.8971 23.6406 34.4605 33.5097L34.5348 33.5395C36.0799 23.6485 47.5756 19.73 54 19C53.3056 32.8887 44.1816 37.6577 37.7139 38.661C36.8494 41.9188 35.9423 46.9654 35.9423 53.6467H30.7423C30.7423 47.3982 31.4834 42.4104 32.3237 38.7929Z" fill="#3ACEB4"/>
<path d="M32.3237 38.7929C25.8438 38.153 15.7325 33.6499 15 19C21.418 19.7293 32.8971 23.6406 34.4605 33.5097L34.5348 33.5395C36.0799 23.6485 47.5756 19.73 54 19C53.3056 32.8887 44.1816 37.6577 37.7139 38.661C36.8494 41.9188 35.9423 46.9654 35.9423 53.6467H30.7423C30.7423 47.3982 31.4834 42.4104 32.3237 38.7929Z" stroke="white"/>
</svg>
