<svg width="60" height="60" viewBox="0 0 60 60" fill="none" xmlns="http://www.w3.org/2000/svg">
<path d="M11.0189 27.2216V46.6467H18.1521V33.2059C16.7955 32.4881 15.4549 31.6048 14.1817 30.5284C13.043 29.5657 11.9794 28.4662 11.0189 27.2216Z" fill="#3ACEB4"/>
<path d="M41.5896 32.8612V46.7122H48.7227V26.2663C47.7563 27.68 46.6625 28.9267 45.4744 30.0161C44.2374 31.1505 42.9254 32.0897 41.5896 32.8612Z" fill="#3ACEB4"/>
<path d="M27.3237 31.7929C20.8438 31.153 10.7325 26.6499 10 12C16.418 12.7293 27.8971 16.6406 29.4605 26.5097L29.5348 26.5395C31.0799 16.6485 42.5756 12.73 49 12C48.3056 25.8887 39.1816 30.6577 32.7139 31.661C31.8494 34.9188 30.9423 39.9654 30.9423 46.6467H25.7423C25.7423 40.3982 26.4834 35.4104 27.3237 31.7929Z" fill="#3ACEB4"/>
<path d="M27.3237 31.7929C20.8438 31.153 10.7325 26.6499 10 12C16.418 12.7293 27.8971 16.6406 29.4605 26.5097L29.5348 26.5395C31.0799 16.6485 42.5756 12.73 49 12C48.3056 25.8887 39.1816 30.6577 32.7139 31.661C31.8494 34.9188 30.9423 39.9654 30.9423 46.6467H25.7423C25.7423 40.3982 26.4834 35.4104 27.3237 31.7929Z" stroke="white"/>
</svg>
