<svg width="225" height="72" viewBox="0 0 225 72" fill="none" xmlns="http://www.w3.org/2000/svg">
<path d="M42.9484 52.3547V19.3971H33.3371L27.5703 43.5693L21.8035 19.3971H12V52.3547H18.1993V29.8701L24.1103 52.3547H30.7421L36.7011 29.7708V52.3547H42.9484Z" fill="#1F3D4E"/>
<path d="M52.9112 37.762C53.1514 34.3869 55.2179 32.4015 57.7168 32.4015C60.1677 32.4015 62.4744 34.1387 62.5705 37.762H52.9112ZM69.0101 41.8321C69.0101 32.1533 65.1656 27.2891 57.909 27.2891C50.6525 27.2891 46.4716 32.1533 46.4716 39.6978C46.4716 48.5328 50.4122 53 58.2935 53C63.3394 53 67.232 50.1708 68.6737 45.1577H62.2341C61.8016 46.8453 60.0235 47.8876 58.0052 47.8876C54.9295 47.8876 52.9112 45.5051 52.7189 41.8321H69.0101Z" fill="#1F3D4E"/>
<path d="M94.0442 52.3547V35.4292C94.0442 30.1182 90.7283 27.2891 86.211 27.2891C82.4145 27.2891 80.0117 28.7781 78.57 31.508V27.9343H72.611V52.3547H78.8583V38.3577C78.8583 34.635 80.4442 32.7489 83.7121 32.7489C86.6916 32.7489 87.7488 33.7912 87.7488 37.5635V52.3547H94.0442Z" fill="#1F3D4E"/>
<path d="M111.63 42.6263C111.63 45.654 110.476 47.3912 107.977 47.3912C105.43 47.3912 104.373 45.6044 104.373 42.527V32.5007H117.444V27.9343H104.373V21.3328H98.2217V43.1723C98.2217 48.4336 100.961 53 107.881 53C114.561 53 117.444 48.3839 117.444 43.2219V36.273H111.63V42.6263Z" fill="#1F3D4E"/>
<path d="M133.069 47.5898C129.272 47.5898 127.35 45.108 127.35 40.1445C127.35 35.181 129.272 32.7489 133.069 32.7489C136.865 32.7489 138.788 35.181 138.788 40.1445C138.788 45.108 136.865 47.5898 133.069 47.5898ZM133.069 53C140.421 53 145.083 47.8876 145.083 40.1445C145.083 32.3518 140.469 27.2891 133.069 27.2891C125.572 27.2891 120.91 32.4015 120.91 40.1445C120.91 47.7387 125.428 53 133.069 53Z" fill="#1F3D4E"/>
<path d="M155.034 52.3547V39.6482C155.034 35.727 156.908 33.7416 160.752 33.7416C161.329 33.7416 161.906 33.7912 162.482 33.8905V27.2891H161.665C159.118 27.2891 156.716 27.5869 154.649 30.8628V27.9343H148.786V52.3547H155.034Z" fill="#1F3D4E"/>
<path d="M174.27 52.3547V32.5007H178.307V27.9343H174.27C174.27 25.1051 174.991 24.2117 178.163 24.2117V19C171.435 19 168.119 21.9781 168.119 27.9343H164.611V32.5007H168.119V52.3547H174.27Z" fill="#1F3D4E"/>
<path d="M202.572 52.3547V27.9343H196.372V42.0307C196.372 45.2569 194.69 47.5898 191.519 47.5898C188.876 47.5898 187.53 46.1007 187.53 43.0234V27.9343H181.283V44.0161C181.283 49.3766 184.599 53 189.308 53C192.576 53 195.027 51.7095 196.661 48.9299V52.3547H202.572Z" fill="#1F3D4E"/>
<path d="M213 52.3547V19H206.753V52.3547H213Z" fill="#1F3D4E"/>
</svg>
